<?xml version="1.0" encoding="UTF-8" standalone="no"?>
<!DOCTYPE svg PUBLIC "-//W3C//DTD SVG 1.1//EN"
 "http://www.w3.org/Graphics/SVG/1.1/DTD/svg11.dtd">
<!-- Generated by graphviz version 2.46.1 (20210213.1702)
 -->
<!-- Title: snakemake_dag Pages: 1 -->
<svg width="354pt" height="44pt"
 viewBox="0.00 0.00 354.00 44.00" xmlns="http://www.w3.org/2000/svg" xmlns:xlink="http://www.w3.org/1999/xlink">
<g id="graph0" class="graph" transform="scale(1 1) rotate(0) translate(4 40)">
<title>snakemake_dag</title>
<polygon fill="white" stroke="transparent" points="-4,4 -4,-40 350,-40 350,4 -4,4"/>
<!-- 0 -->
<g id="node1" class="node">
<title>0</title>
<path fill="none" stroke="#59d856" stroke-width="2" stroke-dasharray="5,2" d="M62,-36C62,-36 12,-36 12,-36 6,-36 0,-30 0,-24 0,-24 0,-12 0,-12 0,-6 6,0 12,0 12,0 62,0 62,0 68,0 74,-6 74,-12 74,-12 74,-24 74,-24 74,-30 68,-36 62,-36"/>
<text text-anchor="middle" x="37" y="-21" font-family="sans" font-size="10.00">sortBam</text>
<text text-anchor="middle" x="37" y="-10" font-family="sans" font-size="10.00">sample: KO1</text>
</g>
<!-- 1 -->
<g id="node2" class="node">
<title>1</title>
<path fill="none" stroke="#59d856" stroke-width="2" stroke-dasharray="5,2" d="M154,-36C154,-36 104,-36 104,-36 98,-36 92,-30 92,-24 92,-24 92,-12 92,-12 92,-6 98,0 104,0 104,0 154,0 154,0 160,0 166,-6 166,-12 166,-12 166,-24 166,-24 166,-30 160,-36 154,-36"/>
<text text-anchor="middle" x="129" y="-21" font-family="sans" font-size="10.00">sortBam</text>
<text text-anchor="middle" x="129" y="-10" font-family="sans" font-size="10.00">sample: KO2</text>
</g>
<!-- 2 -->
<g id="node3" class="node">
<title>2</title>
<path fill="none" stroke="#59d856" stroke-width="2" stroke-dasharray="5,2" d="M242,-36C242,-36 196,-36 196,-36 190,-36 184,-30 184,-24 184,-24 184,-12 184,-12 184,-6 190,0 196,0 196,0 242,0 242,0 248,0 254,-6 254,-12 254,-12 254,-24 254,-24 254,-30 248,-36 242,-36"/>
<text text-anchor="middle" x="219" y="-21" font-family="sans" font-size="10.00">sortBam</text>
<text text-anchor="middle" x="219" y="-10" font-family="sans" font-size="10.00">sample: WT</text>
</g>
<!-- 3 -->
<g id="node4" class="node">
<title>3</title>
<path fill="none" stroke="#59d856" stroke-width="2" stroke-dasharray="5,2" d="M334,-36C334,-36 284,-36 284,-36 278,-36 272,-30 272,-24 272,-24 272,-12 272,-12 272,-6 278,0 284,0 284,0 334,0 334,0 340,0 346,-6 346,-12 346,-12 346,-24 346,-24 346,-30 340,-36 334,-36"/>
<text text-anchor="middle" x="309" y="-21" font-family="sans" font-size="10.00">sortBam</text>
<text text-anchor="middle" x="309" y="-10" font-family="sans" font-size="10.00">sample: KO3</text>
</g>
</g>
</svg>
